HIERARCHY
ROOT Hips
{
	OFFSET 0.000000 71.427986 0.000000
	CHANNELS 6 Xposition Yposition Zposition Xrotation Yrotation Zrotation
	JOINT Pelvis
	{
		OFFSET 0.000000 0.000000 0.000000
		CHANNELS 3 Xrotation Yrotation Zrotation
		JOINT LeftUpLeg
		{
			OFFSET 6.797100 -2.508499 -1.318700
			CHANNELS 3 Xrotation Yrotation Zrotation
			JOINT LeftLeg
			{
				OFFSET 0.069008 -29.241863 0.690200
				CHANNELS 3 Xrotation Yrotation Zrotation
				JOINT LeftFoot
				{
					OFFSET -0.069008 -29.568123 -0.266800
					CHANNELS 3 Xrotation Yrotation Zrotation
					JOINT LeftToeBase
					{
						OFFSET 3.145500 -8.631000 16.059900
						CHANNELS 3 Xrotation Yrotation Zrotation
						End Site
						{
							OFFSET 0.000000 18.501587 0.000000
						}
					}
				}
			}
			JOINT Left_ShortSleeve
			{
				OFFSET 0.265923 -10.480953 1.153800
				CHANNELS 3 Xrotation Yrotation Zrotation
				End Site
				{
					OFFSET 1.725763 19.823879 0.000000
				}
			}
		}
		JOINT RightUpLeg
		{
			OFFSET -6.797100 -2.508499 -1.318700
			CHANNELS 3 Xrotation Yrotation Zrotation
			JOINT RightLeg
			{
				OFFSET -0.082453 -29.241932 0.688000
				CHANNELS 3 Xrotation Yrotation Zrotation
				JOINT RightFoot
				{
					OFFSET 0.082453 -29.568058 -0.264600
					CHANNELS 3 Xrotation Yrotation Zrotation
					JOINT RightToeBase
					{
						OFFSET -3.115300 -8.682800 16.113400
						CHANNELS 3 Xrotation Yrotation Zrotation
						End Site
						{
							OFFSET 0.000000 18.567114 0.000000
						}
					}
				}
			}
			JOINT Right_ShortSleeve
			{
				OFFSET -0.265923 -10.480953 1.153800
				CHANNELS 3 Xrotation Yrotation Zrotation
				End Site
				{
					OFFSET -1.725766 19.823910 0.000000
				}
			}
		}
	}
	JOINT Spine
	{
		OFFSET 0.000000 13.368103 0.470500
		CHANNELS 3 Xrotation Yrotation Zrotation
		JOINT Spine1
		{
			OFFSET 0.147000 13.837402 0.538800
			CHANNELS 3 Xrotation Yrotation Zrotation
			JOINT Spine2
			{
				OFFSET 0.168000 16.242897 -1.435500
				CHANNELS 3 Xrotation Yrotation Zrotation
				JOINT Neck
				{
					OFFSET 0.217200 18.631500 -1.679100
					CHANNELS 3 Xrotation Yrotation Zrotation
					JOINT Head
					{
						OFFSET 0.000000 6.599396 1.385900
						CHANNELS 3 Xrotation Yrotation Zrotation
						JOINT Hat
						{
							OFFSET -0.532200 27.220596 -10.096100
							CHANNELS 3 Xrotation Yrotation Zrotation
							End Site
							{
								OFFSET 0.000000 22.029861 0.000000
							}
						}
						JOINT HairD
						{
							OFFSET -10.777400 17.437393 -1.325900
							CHANNELS 3 Xrotation Yrotation Zrotation
							JOINT HairD1
							{
								OFFSET -3.290299 -11.051193 1.062200
								CHANNELS 3 Xrotation Yrotation Zrotation
								End Site
								{
									OFFSET 0.000000 11.579437 0.000000
								}
							}
						}
						JOINT HairB
						{
							OFFSET -10.777400 17.437393 1.467900
							CHANNELS 3 Xrotation Yrotation Zrotation
							JOINT HairB1
							{
								OFFSET -1.561200 -12.956299 3.590200
								CHANNELS 3 Xrotation Yrotation Zrotation
								End Site
								{
									OFFSET 0.000000 13.534866 0.000000
								}
							}
						}
						JOINT HairA
						{
							OFFSET 9.713100 17.437393 1.467900
							CHANNELS 3 Xrotation Yrotation Zrotation
							JOINT HairA1
							{
								OFFSET 1.561200 -12.956299 3.590200
								CHANNELS 3 Xrotation Yrotation Zrotation
								End Site
								{
									OFFSET 0.000000 13.534866 0.000000
								}
							}
						}
						JOINT HairC
						{
							OFFSET 9.713100 17.437393 -1.325900
							CHANNELS 3 Xrotation Yrotation Zrotation
							JOINT HairC1
							{
								OFFSET 3.290300 -11.051193 1.062200
								CHANNELS 3 Xrotation Yrotation Zrotation
								End Site
								{
									OFFSET 0.000000 11.579437 0.000000
								}
							}
						}
					}
				}
				JOINT LeftShoulder
				{
					OFFSET 5.101800 15.108002 -2.763700
					CHANNELS 3 Xrotation Yrotation Zrotation
					JOINT LeftArm
					{
						OFFSET 9.825497 2.506317 -1.597400
						CHANNELS 3 Xrotation Yrotation Zrotation
						JOINT LeftForeArm
						{
							OFFSET 21.966244 0.000000 0.000000
							CHANNELS 3 Xrotation Yrotation Zrotation
							JOINT LeftHand
							{
								OFFSET 33.879036 0.000000 0.000000
								CHANNELS 3 Xrotation Yrotation Zrotation
								JOINT LeftHandThumb1
								{
									OFFSET 6.715286 -2.359680 3.363841
									CHANNELS 3 Xrotation Yrotation Zrotation
									JOINT LeftHandThumb2
									{
										OFFSET 2.507072 -1.447464 1.447461
										CHANNELS 3 Xrotation Yrotation Zrotation
										JOINT LeftHandThumb3
										{
											OFFSET 2.898338 -1.673355 1.673357
											CHANNELS 3 Xrotation Yrotation Zrotation
											End Site
											{
												OFFSET -0.295959 3.727692 -0.131651
											}
										}
									}
								}
								JOINT LeftHandIndex1
								{
									OFFSET 14.190811 -0.254547 3.840278
									CHANNELS 3 Xrotation Yrotation Zrotation
									JOINT LeftHandIndex2
									{
										OFFSET 3.551727 0.000000 -0.000000
										CHANNELS 3 Xrotation Yrotation Zrotation
										JOINT LeftHandIndex3
										{
											OFFSET 2.894196 0.000000 0.000000
											CHANNELS 3 Xrotation Yrotation Zrotation
											End Site
											{
												OFFSET -1.000603 2.690872 0.366626
											}
										}
									}
								}
								JOINT LeftHandMiddle1
								{
									OFFSET 13.776489 0.000000 0.000000
									CHANNELS 3 Xrotation Yrotation Zrotation
									JOINT LeftHandMiddle2
									{
										OFFSET 3.438232 0.000000 0.000000
										CHANNELS 3 Xrotation Yrotation Zrotation
										JOINT LeftHandMiddle3
										{
											OFFSET 3.691551 0.000000 0.000000
											CHANNELS 3 Xrotation Yrotation Zrotation
											End Site
											{
												OFFSET -1.082298 3.499527 0.457670
											}
										}
									}
								}
								JOINT LeftHandRing1
								{
									OFFSET 13.966164 -0.268127 -3.067488
									CHANNELS 3 Xrotation Yrotation Zrotation
									JOINT LeftHandRing2
									{
										OFFSET 3.162567 0.000000 0.000000
										CHANNELS 3 Xrotation Yrotation Zrotation
										JOINT LeftHandRing3
										{
											OFFSET 3.324348 0.000000 0.000000
											CHANNELS 3 Xrotation Yrotation Zrotation
											End Site
											{
												OFFSET -0.861900 3.184998 0.405154
											}
										}
									}
								}
								JOINT LeftHandPinky1
								{
									OFFSET 13.131393 -0.168503 -5.746925
									CHANNELS 3 Xrotation Yrotation Zrotation
									JOINT LeftHandPinky2
									{
										OFFSET 2.849182 0.000000 0.000000
										CHANNELS 3 Xrotation Yrotation Zrotation
										JOINT LeftHandPinky3
										{
											OFFSET 2.805038 0.000000 0.000000
											CHANNELS 3 Xrotation Yrotation Zrotation
											End Site
											{
												OFFSET -0.882500 2.642609 0.325652
											}
										}
									}
								}
							}
							JOINT Left_Sleeve
							{
								OFFSET 6.592125 -0.646545 0.805568
								CHANNELS 3 Xrotation Yrotation Zrotation
								End Site
								{
									OFFSET -0.000179 20.275787 -0.000000
								}
							}
						}
					}
				}
				JOINT RightShoulder
				{
					OFFSET -5.731700 15.108002 -2.763700
					CHANNELS 3 Xrotation Yrotation Zrotation
					JOINT RightArm
					{
						OFFSET -9.825497 2.506317 -1.597400
						CHANNELS 3 Xrotation Yrotation Zrotation
						JOINT RightForeArm
						{
							OFFSET -21.966242 0.000000 0.000000
							CHANNELS 3 Xrotation Yrotation Zrotation
							JOINT RightHand
							{
								OFFSET -33.879032 0.000000 0.000000
								CHANNELS 3 Xrotation Yrotation Zrotation
								JOINT RightHandThumb1
								{
									OFFSET -6.715286 -2.359680 3.363841
									CHANNELS 3 Xrotation Yrotation Zrotation
									JOINT RightHandThumb2
									{
										OFFSET -2.507072 -1.447464 1.447461
										CHANNELS 3 Xrotation Yrotation Zrotation
										JOINT RightHandThumb3
										{
											OFFSET -2.898338 -1.673355 1.673357
											CHANNELS 3 Xrotation Yrotation Zrotation
											End Site
											{
												OFFSET 0.295959 3.727692 -0.131651
											}
										}
									}
								}
								JOINT RightHandIndex1
								{
									OFFSET -14.190811 -0.254547 3.840278
									CHANNELS 3 Xrotation Yrotation Zrotation
									JOINT RightHandIndex2
									{
										OFFSET -3.551727 0.000000 -0.000000
										CHANNELS 3 Xrotation Yrotation Zrotation
										JOINT RightHandIndex3
										{
											OFFSET -2.894196 0.000000 0.000000
											CHANNELS 3 Xrotation Yrotation Zrotation
											End Site
											{
												OFFSET 1.000603 2.690872 0.366626
											}
										}
									}
								}
								JOINT RightHandMiddle1
								{
									OFFSET -13.776489 0.000000 0.000000
									CHANNELS 3 Xrotation Yrotation Zrotation
									JOINT RightHandMiddle2
									{
										OFFSET -3.438232 0.000000 0.000000
										CHANNELS 3 Xrotation Yrotation Zrotation
										JOINT RightHandMiddle3
										{
											OFFSET -3.691551 0.000000 0.000000
											CHANNELS 3 Xrotation Yrotation Zrotation
											End Site
											{
												OFFSET 1.082298 3.499527 0.457670
											}
										}
									}
								}
								JOINT RightHandRing1
								{
									OFFSET -13.966164 -0.268127 -3.067488
									CHANNELS 3 Xrotation Yrotation Zrotation
									JOINT RightHandRing2
									{
										OFFSET -3.162567 0.000000 0.000000
										CHANNELS 3 Xrotation Yrotation Zrotation
										JOINT RightHandRing3
										{
											OFFSET -3.324348 0.000000 0.000000
											CHANNELS 3 Xrotation Yrotation Zrotation
											End Site
											{
												OFFSET 0.861900 3.184998 0.405154
											}
										}
									}
								}
								JOINT RightHandPinky1
								{
									OFFSET -13.131393 -0.168503 -5.746925
									CHANNELS 3 Xrotation Yrotation Zrotation
									JOINT RightHandPinky2
									{
										OFFSET -2.849182 0.000000 0.000000
										CHANNELS 3 Xrotation Yrotation Zrotation
										JOINT RightHandPinky3
										{
											OFFSET -2.805038 0.000000 0.000000
											CHANNELS 3 Xrotation Yrotation Zrotation
											End Site
											{
												OFFSET 0.882500 2.642609 0.325652
											}
										}
									}
								}
							}
							JOINT Right_Sleeve
							{
								OFFSET -6.592125 -0.646545 0.805568
								CHANNELS 3 Xrotation Yrotation Zrotation
								End Site
								{
									OFFSET 0.000179 20.275787 -0.000000
								}
							}
						}
					}
				}
				JOINT Bind_Right_JacketString
				{
					OFFSET -3.534800 11.969597 7.200700
					CHANNELS 3 Xrotation Yrotation Zrotation
					JOINT Bind_Right_JacketString1
					{
						OFFSET -0.319900 -6.102600 2.794100
						CHANNELS 3 Xrotation Yrotation Zrotation
						End Site
						{
							OFFSET 0.000000 6.719452 0.000000
						}
					}
				}
				JOINT Bind_Left_JacketString
				{
					OFFSET 2.904800 11.969597 7.200700
					CHANNELS 3 Xrotation Yrotation Zrotation
					JOINT Bind_Left_JacketString1
					{
						OFFSET 0.364800 -5.904503 3.186800
						CHANNELS 3 Xrotation Yrotation Zrotation
						End Site
						{
							OFFSET 0.000000 6.719513 0.000000
						}
					}
				}
				JOINT HairE
				{
					OFFSET 5.915200 17.612701 -11.592200
					CHANNELS 3 Xrotation Yrotation Zrotation
					JOINT HairE1
					{
						OFFSET 0.289200 -7.171898 -1.284500
						CHANNELS 3 Xrotation Yrotation Zrotation
						End Site
						{
							OFFSET 0.000000 7.291756 0.000000
						}
					}
				}
				JOINT HairF
				{
					OFFSET -0.864800 17.612701 -11.592200
					CHANNELS 3 Xrotation Yrotation Zrotation
					JOINT HairF1
					{
						OFFSET 0.000000 -14.087097 -2.127501
						CHANNELS 3 Xrotation Yrotation Zrotation
						End Site
						{
							OFFSET 0.000000 14.246841 0.000000
						}
					}
				}
				JOINT HairG
				{
					OFFSET -8.087700 17.612701 -11.592200
					CHANNELS 3 Xrotation Yrotation Zrotation
					JOINT HairG1
					{
						OFFSET -0.293600 -6.081398 -0.910100
						CHANNELS 3 Xrotation Yrotation Zrotation
						End Site
						{
							OFFSET 0.000000 6.156120 0.000000
						}
					}
				}
			}
		}
	}
	JOINT Pouch
	{
		OFFSET 0.000000 4.394501 10.847300
		CHANNELS 3 Xrotation Yrotation Zrotation
		End Site
		{
			OFFSET 0.000000 21.880577 0.000000
		}
	}
	JOINT Bag
	{
		OFFSET -13.229000 4.813004 -0.593300
		CHANNELS 3 Xrotation Yrotation Zrotation
		End Site
		{
			OFFSET 0.000000 21.880577 0.000000
		}
	}
	JOINT OccupyGuyFacialAnim_Joint
	{
		OFFSET 1.000000 -70.206398 -1.655000
		CHANNELS 3 Xrotation Yrotation Zrotation
		End Site
		{
			OFFSET 0.000000 21.880577 0.000000
		}
	}
}
MOTION
Frames: 4
Frame Time: 0.033333
0.039670 35.134689 1.063967 0.290782 0.673325 0.771952 -0.000000 0.000000 -0.000000 -5.998378 1.537438 13.644480 108.360220 18.111551 1.923796 23.835171 -0.126867 -12.822294 -0.000001 -0.000001 0.000001 0.000001 0.000000 0.000000 -4.200987 -4.595234 -13.345956 108.744535 -5.300620 -0.526590 14.711109 0.501649 8.321470 -0.000000 0.000002 0.000002 -0.000000 0.000000 -0.000001 1.227585 0.309404 -0.014058 0.120697 0.089115 -0.089427 0.111210 0.089452 -0.088837 -0.394416 0.001169 0.119094 -1.019444 0.502135 0.198294 0.000000 -0.000000 0.000000 0.000000 -0.000000 0.000000 0.000000 -0.000000 0.000000 0.000000 -0.000000 0.000000 0.000000 -0.000000 0.000000 0.000000 -0.000000 0.000000 0.000000 -0.000000 0.000000 0.000000 -0.000000 0.000000 0.000000 -0.000000 0.000000 0.615460 -3.294476 -22.050656 11.529945 -16.612565 -52.913079 -0.000003 -20.510404 -0.000017 -6.714728 11.745075 -3.223365 -8.102244 -14.539646 10.591802 11.519468 33.944900 -1.835869 0.000000 -0.000001 -0.000002 -0.443000 -5.220352 -5.108633 0.365511 2.038719 -20.326541 -0.000000 -0.000000 -0.000000 -0.490465 -1.175110 -8.219731 1.004542 3.282040 -34.027627 0.000001 0.000000 -0.000001 -0.147345 2.837934 -20.338024 0.120857 1.185072 -11.645952 0.000002 0.000001 -0.000002 -7.717400 9.033628 -15.193631 0.613342 2.611557 -26.429337 0.000000 -0.000000 0.000003 0.000000 0.000001 0.000001 -0.109936 9.901607 22.049970 7.749738 7.109244 56.260046 -0.000010 20.000809 0.000014 -2.738946 -6.069242 2.068548 -17.576425 6.000967 -1.571649 -4.151494 -35.474978 -9.895047 0.000000 -0.000001 0.000001 13.476913 4.936632 10.733980 0.177571 -1.275063 15.856330 -0.000006 0.000003 0.000001 -0.156363 -1.199471 8.270450 0.902063 -2.756671 36.233156 0.000001 0.000001 0.000001 0.610414 -5.298219 12.586479 0.710971 -2.475174 32.048357 0.000000 -0.000000 -0.000002 -12.196422 -16.733096 12.336011 0.425833 -1.947285 24.668275 -0.000001 -0.000000 0.000002 0.000001 -0.000003 0.000001 -0.000000 0.000000 0.000000 -0.000000 0.000000 0.000000 -0.000000 0.000000 0.000000 -0.000000 0.000000 0.000000 -0.000000 0.000000 0.000000 -0.000000 0.000000 0.000000 -0.000000 0.000000 0.000000 -0.000000 0.000000 0.000000 -0.000000 0.000000 0.000000 -0.000000 0.000000 0.000000 -0.000000 0.000000 -0.000000 -0.000000 0.000000 -0.000000 -0.000000 0.000000 -0.000000 
0.039669 35.135063 1.063537 0.290782 0.673325 0.771952 -0.000000 0.000000 -0.000000 -5.998135 1.532586 13.644712 108.361231 18.111012 1.920305 23.835496 -0.126527 -12.822307 0.000002 0.000000 0.000001 -0.000000 -0.000000 0.000002 -4.200557 -4.589803 -13.346231 108.745197 -5.299973 -0.521888 14.711473 0.501620 8.321369 0.000001 0.000001 0.000000 0.000000 0.000000 -0.000000 1.223962 0.309412 -0.014070 0.156035 0.089115 -0.089427 0.123244 0.089452 -0.088837 -0.407335 0.001169 0.119094 -1.061386 0.502085 0.198294 0.000000 -0.000000 0.000000 0.000000 -0.000000 0.000000 0.000000 -0.000000 0.000000 0.000000 -0.000000 0.000000 0.000000 -0.000000 0.000000 0.000000 -0.000000 0.000000 0.000000 -0.000000 0.000000 0.000000 -0.000000 0.000000 0.000000 -0.000000 0.000000 0.615937 -3.294487 -22.045962 11.521741 -16.446949 -52.946776 0.000003 -20.567423 0.000031 -6.715694 11.754894 -3.323068 -8.091783 -14.483387 10.612509 11.519471 33.944900 -1.835869 0.000002 -0.000000 -0.000002 -0.440754 -5.194371 -5.358601 0.374499 2.062781 -20.577615 -0.000001 0.000000 -0.000000 -0.516057 -1.242363 -8.428996 0.996397 3.269973 -33.885135 0.000001 0.000002 0.000001 -0.146863 2.844001 -20.395254 0.125176 1.205845 -11.852973 0.000001 0.000001 0.000000 -7.712712 9.047871 -15.342584 0.620126 2.625149 -26.577893 0.000000 -0.000001 0.000003 0.000000 0.000001 -0.000001 -0.108529 9.899311 22.048486 7.751965 7.236626 56.242144 0.000002 20.044233 0.000002 -2.741365 -6.072982 2.128124 -17.595242 6.052424 -1.559819 -4.151493 -35.474978 -9.895046 -0.000000 0.000000 0.000004 13.482977 4.952573 10.568008 0.167490 -1.238963 15.396069 -0.000001 0.000001 0.000000 -0.151568 -1.177095 8.015101 0.886052 -2.734721 35.899023 -0.000002 -0.000001 -0.000001 0.595998 -5.279189 12.308165 0.676919 -2.419959 31.250738 -0.000000 0.000001 -0.000003 -12.256984 -16.730169 12.052156 0.404564 -1.900334 24.034886 -0.000001 0.000001 0.000004 -0.000000 -0.000001 0.000001 0.000000 0.000000 -0.000000 0.000000 0.000000 -0.000000 0.000000 0.000000 -0.000000 0.000000 0.000000 -0.000000 0.000000 0.000000 -0.000000 0.000000 0.000000 -0.000000 0.000000 0.000000 -0.000000 0.000000 0.000000 -0.000000 0.000000 0.000000 -0.000000 0.000000 0.000000 -0.000000 -0.000000 0.000000 -0.000000 -0.000000 0.000000 -0.000000 -0.000000 0.000000 -0.000000 
0.039667 35.135841 1.062596 0.290782 0.673325 0.771952 -0.000000 0.000000 -0.000000 -5.998329 1.526418 13.644865 108.362959 18.111018 1.914873 23.836419 -0.126127 -12.821915 0.000001 -0.000002 -0.000000 0.000000 0.000000 0.000000 -4.200891 -4.584616 -13.346425 108.745826 -5.299250 -0.517562 14.712000 0.501606 8.321547 -0.000000 0.000000 0.000000 0.000000 0.000000 0.000001 1.213444 0.309425 -0.014097 0.189107 0.089115 -0.089427 0.151090 0.089452 -0.088837 -0.420127 0.001168 0.119094 -1.097933 0.502033 0.198294 -0.000000 -0.000000 0.000000 -0.000000 -0.000000 0.000000 -0.000000 -0.000000 0.000000 -0.000000 -0.000000 0.000000 0.000000 -0.000000 0.000000 -0.000000 -0.000000 0.000000 0.000000 -0.000000 0.000000 -0.000000 -0.000000 0.000000 -0.000000 -0.000000 0.000000 0.617445 -3.294611 -22.032078 11.518300 -16.288744 -52.976819 -0.000005 -20.630687 0.000016 -6.716994 11.765130 -3.434806 -8.080414 -14.422342 10.634971 11.519471 33.944893 -1.835871 0.000002 0.000001 -0.000001 -0.438078 -5.165227 -5.629758 0.384367 2.088853 -20.850006 -0.000000 0.000001 0.000000 -0.544449 -1.315195 -8.656103 0.987597 3.256858 -33.730565 -0.000001 0.000001 0.000004 -0.146339 2.850593 -20.457328 0.129951 1.228350 -12.077688 -0.000000 -0.000000 -0.000002 -7.707668 9.063347 -15.504306 0.627528 2.639885 -26.739098 0.000000 -0.000000 -0.000001 0.000001 0.000000 -0.000001 -0.104092 9.891643 22.044883 7.754365 7.363649 56.222572 -0.000001 20.092955 -0.000010 -2.744103 -6.077136 2.193643 -17.612280 6.098680 -1.548875 -4.151494 -35.474978 -9.895046 0.000001 -0.000001 0.000002 13.488490 4.966946 10.418487 0.158367 -1.205403 14.969017 -0.000003 0.000002 -0.000001 -0.147170 -1.156950 7.785090 0.869357 -2.711535 35.547617 0.000003 -0.000000 -0.000003 0.583070 -5.261950 12.057476 0.644857 -2.366365 30.482830 0.000002 -0.000000 -0.000002 -12.311806 -16.727311 11.796437 0.384594 -1.854904 23.425121 -0.000001 0.000001 -0.000001 0.000001 -0.000000 -0.000000 -0.000000 -0.000000 -0.000000 -0.000000 0.000000 0.000000 -0.000000 -0.000000 -0.000000 -0.000000 -0.000000 -0.000000 -0.000000 -0.000000 -0.000000 -0.000000 0.000000 0.000000 -0.000000 -0.000000 -0.000000 -0.000000 -0.000000 -0.000000 -0.000000 -0.000000 -0.000000 -0.000000 0.000000 0.000000 -0.000000 0.000000 -0.000000 -0.000000 0.000000 -0.000000 -0.000000 0.000000 -0.000000 
0.039670 35.137039 1.061166 0.290782 0.673325 0.771952 -0.000000 0.000000 -0.000000 -5.999047 1.519053 13.644715 108.364974 18.110670 1.908802 23.837529 -0.125732 -12.821795 -0.000002 0.000001 -0.000001 0.000000 0.000000 0.000001 -4.202036 -4.579683 -13.346535 108.746550 -5.298333 -0.513521 14.712750 0.501586 8.322059 -0.000001 0.000000 -0.000000 -0.000000 0.000000 -0.000000 1.197476 0.309405 -0.014100 0.219607 0.089115 -0.089427 0.193398 0.089452 -0.088837 -0.432693 0.001168 0.119094 -1.127254 0.501982 0.198294 0.000000 0.000000 -0.000000 0.000000 0.000000 -0.000000 0.000000 0.000000 -0.000000 0.000000 0.000000 -0.000000 0.000000 0.000000 -0.000000 0.000000 0.000000 -0.000000 0.000000 0.000000 -0.000000 0.000000 0.000000 -0.000000 0.000000 0.000000 -0.000000 0.620260 -3.295024 -22.010949 11.520158 -16.137970 -52.999891 -0.000003 -20.699658 -0.000002 -6.718551 11.776272 -3.557673 -8.068306 -14.357082 10.658961 11.519472 33.944896 -1.835871 0.000000 -0.000000 -0.000002 -0.435033 -5.133904 -5.919656 0.395048 2.116679 -21.141244 -0.000000 0.000002 0.000000 -0.575551 -1.392880 -8.899015 0.978230 3.242805 -33.565325 0.000000 -0.000001 -0.000003 -0.145764 2.857635 -20.523735 0.135145 1.252397 -12.317911 0.000001 0.000001 -0.000002 -7.702303 9.079935 -15.677156 0.635496 2.655609 -26.911464 -0.000000 -0.000001 0.000003 0.000000 0.000000 -0.000000 -0.096305 9.879087 22.036103 7.755972 7.487380 56.200326 -0.000009 20.146548 0.000017 -2.747075 -6.081644 2.264512 -17.627192 6.139395 -1.539195 -4.151495 -35.474981 -9.895044 -0.000000 -0.000001 -0.000000 13.493307 4.979589 10.286880 0.150340 -1.174985 14.582845 -0.000000 -0.000002 -0.000000 -0.143227 -1.139238 7.582577 0.852133 -2.687291 35.181966 0.000001 0.000000 -0.000001 0.571745 -5.246718 11.836767 0.615577 -2.315955 29.766207 -0.000002 0.000000 -0.000002 -12.360435 -16.724654 11.571243 0.366378 -1.812310 22.856014 -0.000003 0.000001 0.000002 0.000003 -0.000002 0.000001 0.000000 -0.000000 -0.000000 0.000000 0.000000 0.000000 0.000000 -0.000000 0.000000 0.000000 -0.000000 0.000000 0.000000 -0.000000 -0.000000 0.000000 0.000000 0.000000 0.000000 -0.000000 0.000000 0.000000 -0.000000 0.000000 0.000000 -0.000000 -0.000000 0.000000 0.000000 0.000000 -0.000000 0.000000 -0.000000 -0.000000 0.000000 -0.000000 -0.000000 0.000000 -0.000000 
